G04 #@! TF.FileFunction,Legend,Top*
%FSLAX46Y46*%
G04 Gerber Fmt 4.6, Leading zero omitted, Abs format (unit mm)*
G04 Created by KiCad (PCBNEW 4.0.4-stable) date 09/17/17 12:52:23*
%MOMM*%
%LPD*%
G01*
G04 APERTURE LIST*
%ADD10C,0.100000*%
%ADD11C,0.120000*%
%ADD12C,0.150000*%
G04 APERTURE END LIST*
D10*
X155299835Y-103504167D02*
X155299835Y-102804167D01*
X155466501Y-102804167D01*
X155566501Y-102837500D01*
X155633168Y-102904167D01*
X155666501Y-102970833D01*
X155699835Y-103104167D01*
X155699835Y-103204167D01*
X155666501Y-103337500D01*
X155633168Y-103404167D01*
X155566501Y-103470833D01*
X155466501Y-103504167D01*
X155299835Y-103504167D01*
X155999835Y-103504167D02*
X155999835Y-103037500D01*
X155999835Y-103170833D02*
X156033168Y-103104167D01*
X156066501Y-103070833D01*
X156133168Y-103037500D01*
X156199835Y-103037500D01*
X157366501Y-103437500D02*
X157333167Y-103470833D01*
X157233167Y-103504167D01*
X157166501Y-103504167D01*
X157066501Y-103470833D01*
X156999834Y-103404167D01*
X156966501Y-103337500D01*
X156933167Y-103204167D01*
X156933167Y-103104167D01*
X156966501Y-102970833D01*
X156999834Y-102904167D01*
X157066501Y-102837500D01*
X157166501Y-102804167D01*
X157233167Y-102804167D01*
X157333167Y-102837500D01*
X157366501Y-102870833D01*
X157966501Y-103504167D02*
X157966501Y-103137500D01*
X157933167Y-103070833D01*
X157866501Y-103037500D01*
X157733167Y-103037500D01*
X157666501Y-103070833D01*
X157966501Y-103470833D02*
X157899834Y-103504167D01*
X157733167Y-103504167D01*
X157666501Y-103470833D01*
X157633167Y-103404167D01*
X157633167Y-103337500D01*
X157666501Y-103270833D01*
X157733167Y-103237500D01*
X157899834Y-103237500D01*
X157966501Y-103204167D01*
X158599834Y-103504167D02*
X158599834Y-102804167D01*
X158599834Y-103470833D02*
X158533167Y-103504167D01*
X158399834Y-103504167D01*
X158333167Y-103470833D01*
X158299834Y-103437500D01*
X158266500Y-103370833D01*
X158266500Y-103170833D01*
X158299834Y-103104167D01*
X158333167Y-103070833D01*
X158399834Y-103037500D01*
X158533167Y-103037500D01*
X158599834Y-103070833D01*
X158933167Y-103504167D02*
X158933167Y-103037500D01*
X158933167Y-102804167D02*
X158899833Y-102837500D01*
X158933167Y-102870833D01*
X158966500Y-102837500D01*
X158933167Y-102804167D01*
X158933167Y-102870833D01*
X159566500Y-103470833D02*
X159499833Y-103504167D01*
X159366500Y-103504167D01*
X159299833Y-103470833D01*
X159266500Y-103437500D01*
X159233166Y-103370833D01*
X159233166Y-103170833D01*
X159266500Y-103104167D01*
X159299833Y-103070833D01*
X159366500Y-103037500D01*
X159499833Y-103037500D01*
X159566500Y-103070833D01*
X147371048Y-103917667D02*
X147332952Y-103879571D01*
X147256762Y-103765286D01*
X147218667Y-103689095D01*
X147180571Y-103574810D01*
X147142476Y-103384333D01*
X147142476Y-103231952D01*
X147180571Y-103041476D01*
X147218667Y-102927190D01*
X147256762Y-102851000D01*
X147332952Y-102736714D01*
X147371048Y-102698619D01*
X148018666Y-103574810D02*
X147942476Y-103612905D01*
X147790095Y-103612905D01*
X147713904Y-103574810D01*
X147675809Y-103536714D01*
X147637714Y-103460524D01*
X147637714Y-103231952D01*
X147675809Y-103155762D01*
X147713904Y-103117667D01*
X147790095Y-103079571D01*
X147942476Y-103079571D01*
X148018666Y-103117667D01*
X148285333Y-103917667D02*
X148323428Y-103879571D01*
X148399618Y-103765286D01*
X148437714Y-103689095D01*
X148475809Y-103574810D01*
X148513904Y-103384333D01*
X148513904Y-103231952D01*
X148475809Y-103041476D01*
X148437714Y-102927190D01*
X148399618Y-102851000D01*
X148323428Y-102736714D01*
X148285333Y-102698619D01*
X148856761Y-102889095D02*
X148894856Y-102851000D01*
X148971047Y-102812905D01*
X149161523Y-102812905D01*
X149237713Y-102851000D01*
X149275809Y-102889095D01*
X149313904Y-102965286D01*
X149313904Y-103041476D01*
X149275809Y-103155762D01*
X148818666Y-103612905D01*
X149313904Y-103612905D01*
X149809142Y-102812905D02*
X149885333Y-102812905D01*
X149961523Y-102851000D01*
X149999618Y-102889095D01*
X150037714Y-102965286D01*
X150075809Y-103117667D01*
X150075809Y-103308143D01*
X150037714Y-103460524D01*
X149999618Y-103536714D01*
X149961523Y-103574810D01*
X149885333Y-103612905D01*
X149809142Y-103612905D01*
X149732952Y-103574810D01*
X149694856Y-103536714D01*
X149656761Y-103460524D01*
X149618666Y-103308143D01*
X149618666Y-103117667D01*
X149656761Y-102965286D01*
X149694856Y-102889095D01*
X149732952Y-102851000D01*
X149809142Y-102812905D01*
X150837714Y-103612905D02*
X150380571Y-103612905D01*
X150609142Y-103612905D02*
X150609142Y-102812905D01*
X150532952Y-102927190D01*
X150456761Y-103003381D01*
X150380571Y-103041476D01*
X151104381Y-102812905D02*
X151637714Y-102812905D01*
X151294857Y-103612905D01*
X156565714Y-131791905D02*
X156108571Y-131791905D01*
X156337142Y-131791905D02*
X156337142Y-130991905D01*
X156260952Y-131106190D01*
X156184761Y-131182381D01*
X156108571Y-131220476D01*
X156870476Y-131068095D02*
X156908571Y-131030000D01*
X156984762Y-130991905D01*
X157175238Y-130991905D01*
X157251428Y-131030000D01*
X157289524Y-131068095D01*
X157327619Y-131144286D01*
X157327619Y-131220476D01*
X157289524Y-131334762D01*
X156832381Y-131791905D01*
X157327619Y-131791905D01*
X157822857Y-130991905D02*
X157899048Y-130991905D01*
X157975238Y-131030000D01*
X158013333Y-131068095D01*
X158051429Y-131144286D01*
X158089524Y-131296667D01*
X158089524Y-131487143D01*
X158051429Y-131639524D01*
X158013333Y-131715714D01*
X157975238Y-131753810D01*
X157899048Y-131791905D01*
X157822857Y-131791905D01*
X157746667Y-131753810D01*
X157708571Y-131715714D01*
X157670476Y-131639524D01*
X157632381Y-131487143D01*
X157632381Y-131296667D01*
X157670476Y-131144286D01*
X157708571Y-131068095D01*
X157746667Y-131030000D01*
X157822857Y-130991905D01*
X158775238Y-130991905D02*
X158622857Y-130991905D01*
X158546667Y-131030000D01*
X158508572Y-131068095D01*
X158432381Y-131182381D01*
X158394286Y-131334762D01*
X158394286Y-131639524D01*
X158432381Y-131715714D01*
X158470476Y-131753810D01*
X158546667Y-131791905D01*
X158699048Y-131791905D01*
X158775238Y-131753810D01*
X158813334Y-131715714D01*
X158851429Y-131639524D01*
X158851429Y-131449048D01*
X158813334Y-131372857D01*
X158775238Y-131334762D01*
X158699048Y-131296667D01*
X158546667Y-131296667D01*
X158470476Y-131334762D01*
X158432381Y-131372857D01*
X158394286Y-131449048D01*
X156641905Y-133091905D02*
X156260952Y-133091905D01*
X156260952Y-132291905D01*
X156908571Y-132672857D02*
X157175238Y-132672857D01*
X157289524Y-133091905D02*
X156908571Y-133091905D01*
X156908571Y-132291905D01*
X157289524Y-132291905D01*
X157632381Y-133091905D02*
X157632381Y-132291905D01*
X157822857Y-132291905D01*
X157937143Y-132330000D01*
X158013334Y-132406190D01*
X158051429Y-132482381D01*
X158089524Y-132634762D01*
X158089524Y-132749048D01*
X158051429Y-132901429D01*
X158013334Y-132977619D01*
X157937143Y-133053810D01*
X157822857Y-133091905D01*
X157632381Y-133091905D01*
X158394286Y-133053810D02*
X158470476Y-133091905D01*
X158622857Y-133091905D01*
X158699048Y-133053810D01*
X158737143Y-132977619D01*
X158737143Y-132939524D01*
X158699048Y-132863333D01*
X158622857Y-132825238D01*
X158508572Y-132825238D01*
X158432381Y-132787143D01*
X158394286Y-132710952D01*
X158394286Y-132672857D01*
X158432381Y-132596667D01*
X158508572Y-132558571D01*
X158622857Y-132558571D01*
X158699048Y-132596667D01*
D11*
X150570000Y-107000000D02*
X150570000Y-108900000D01*
X150570000Y-108900000D02*
X155270000Y-108900000D01*
X150570000Y-107000000D02*
X155270000Y-107000000D01*
X150570000Y-109540000D02*
X150570000Y-111440000D01*
X150570000Y-111440000D02*
X155270000Y-111440000D01*
X150570000Y-109540000D02*
X155270000Y-109540000D01*
X150570000Y-112080000D02*
X150570000Y-113980000D01*
X150570000Y-113980000D02*
X155270000Y-113980000D01*
X150570000Y-112080000D02*
X155270000Y-112080000D01*
X150570000Y-114620000D02*
X150570000Y-116520000D01*
X150570000Y-116520000D02*
X155270000Y-116520000D01*
X150570000Y-114620000D02*
X155270000Y-114620000D01*
X150570000Y-117160000D02*
X150570000Y-119060000D01*
X150570000Y-119060000D02*
X155270000Y-119060000D01*
X150570000Y-117160000D02*
X155270000Y-117160000D01*
X150570000Y-119700000D02*
X150570000Y-121600000D01*
X150570000Y-121600000D02*
X155270000Y-121600000D01*
X150570000Y-119700000D02*
X155270000Y-119700000D01*
X150570000Y-122240000D02*
X150570000Y-124140000D01*
X150570000Y-124140000D02*
X155270000Y-124140000D01*
X150570000Y-122240000D02*
X155270000Y-122240000D01*
X150570000Y-124780000D02*
X150570000Y-126680000D01*
X150570000Y-126680000D02*
X155270000Y-126680000D01*
X150570000Y-124780000D02*
X155270000Y-124780000D01*
X150570000Y-127320000D02*
X150570000Y-129220000D01*
X150570000Y-129220000D02*
X155270000Y-129220000D01*
X150570000Y-127320000D02*
X155270000Y-127320000D01*
X147260000Y-109220000D02*
X147260000Y-132140000D01*
X147260000Y-132140000D02*
X149920000Y-132140000D01*
X149920000Y-132140000D02*
X149920000Y-109220000D01*
X149920000Y-109220000D02*
X147260000Y-109220000D01*
X147260000Y-107950000D02*
X147260000Y-106620000D01*
X147260000Y-106620000D02*
X148590000Y-106620000D01*
D12*
X158011905Y-107767381D02*
X158011905Y-106767381D01*
X158250000Y-106767381D01*
X158392858Y-106815000D01*
X158488096Y-106910238D01*
X158535715Y-107005476D01*
X158583334Y-107195952D01*
X158583334Y-107338810D01*
X158535715Y-107529286D01*
X158488096Y-107624524D01*
X158392858Y-107719762D01*
X158250000Y-107767381D01*
X158011905Y-107767381D01*
X159535715Y-107767381D02*
X158964286Y-107767381D01*
X159250000Y-107767381D02*
X159250000Y-106767381D01*
X159154762Y-106910238D01*
X159059524Y-107005476D01*
X158964286Y-107053095D01*
X158011905Y-110307381D02*
X158011905Y-109307381D01*
X158250000Y-109307381D01*
X158392858Y-109355000D01*
X158488096Y-109450238D01*
X158535715Y-109545476D01*
X158583334Y-109735952D01*
X158583334Y-109878810D01*
X158535715Y-110069286D01*
X158488096Y-110164524D01*
X158392858Y-110259762D01*
X158250000Y-110307381D01*
X158011905Y-110307381D01*
X158964286Y-109402619D02*
X159011905Y-109355000D01*
X159107143Y-109307381D01*
X159345239Y-109307381D01*
X159440477Y-109355000D01*
X159488096Y-109402619D01*
X159535715Y-109497857D01*
X159535715Y-109593095D01*
X159488096Y-109735952D01*
X158916667Y-110307381D01*
X159535715Y-110307381D01*
X158011905Y-112847381D02*
X158011905Y-111847381D01*
X158250000Y-111847381D01*
X158392858Y-111895000D01*
X158488096Y-111990238D01*
X158535715Y-112085476D01*
X158583334Y-112275952D01*
X158583334Y-112418810D01*
X158535715Y-112609286D01*
X158488096Y-112704524D01*
X158392858Y-112799762D01*
X158250000Y-112847381D01*
X158011905Y-112847381D01*
X158916667Y-111847381D02*
X159535715Y-111847381D01*
X159202381Y-112228333D01*
X159345239Y-112228333D01*
X159440477Y-112275952D01*
X159488096Y-112323571D01*
X159535715Y-112418810D01*
X159535715Y-112656905D01*
X159488096Y-112752143D01*
X159440477Y-112799762D01*
X159345239Y-112847381D01*
X159059524Y-112847381D01*
X158964286Y-112799762D01*
X158916667Y-112752143D01*
X158011905Y-115387381D02*
X158011905Y-114387381D01*
X158250000Y-114387381D01*
X158392858Y-114435000D01*
X158488096Y-114530238D01*
X158535715Y-114625476D01*
X158583334Y-114815952D01*
X158583334Y-114958810D01*
X158535715Y-115149286D01*
X158488096Y-115244524D01*
X158392858Y-115339762D01*
X158250000Y-115387381D01*
X158011905Y-115387381D01*
X159440477Y-114720714D02*
X159440477Y-115387381D01*
X159202381Y-114339762D02*
X158964286Y-115054048D01*
X159583334Y-115054048D01*
X158011905Y-117927381D02*
X158011905Y-116927381D01*
X158250000Y-116927381D01*
X158392858Y-116975000D01*
X158488096Y-117070238D01*
X158535715Y-117165476D01*
X158583334Y-117355952D01*
X158583334Y-117498810D01*
X158535715Y-117689286D01*
X158488096Y-117784524D01*
X158392858Y-117879762D01*
X158250000Y-117927381D01*
X158011905Y-117927381D01*
X159488096Y-116927381D02*
X159011905Y-116927381D01*
X158964286Y-117403571D01*
X159011905Y-117355952D01*
X159107143Y-117308333D01*
X159345239Y-117308333D01*
X159440477Y-117355952D01*
X159488096Y-117403571D01*
X159535715Y-117498810D01*
X159535715Y-117736905D01*
X159488096Y-117832143D01*
X159440477Y-117879762D01*
X159345239Y-117927381D01*
X159107143Y-117927381D01*
X159011905Y-117879762D01*
X158964286Y-117832143D01*
X158011905Y-120467381D02*
X158011905Y-119467381D01*
X158250000Y-119467381D01*
X158392858Y-119515000D01*
X158488096Y-119610238D01*
X158535715Y-119705476D01*
X158583334Y-119895952D01*
X158583334Y-120038810D01*
X158535715Y-120229286D01*
X158488096Y-120324524D01*
X158392858Y-120419762D01*
X158250000Y-120467381D01*
X158011905Y-120467381D01*
X159440477Y-119467381D02*
X159250000Y-119467381D01*
X159154762Y-119515000D01*
X159107143Y-119562619D01*
X159011905Y-119705476D01*
X158964286Y-119895952D01*
X158964286Y-120276905D01*
X159011905Y-120372143D01*
X159059524Y-120419762D01*
X159154762Y-120467381D01*
X159345239Y-120467381D01*
X159440477Y-120419762D01*
X159488096Y-120372143D01*
X159535715Y-120276905D01*
X159535715Y-120038810D01*
X159488096Y-119943571D01*
X159440477Y-119895952D01*
X159345239Y-119848333D01*
X159154762Y-119848333D01*
X159059524Y-119895952D01*
X159011905Y-119943571D01*
X158964286Y-120038810D01*
X158011905Y-123007381D02*
X158011905Y-122007381D01*
X158250000Y-122007381D01*
X158392858Y-122055000D01*
X158488096Y-122150238D01*
X158535715Y-122245476D01*
X158583334Y-122435952D01*
X158583334Y-122578810D01*
X158535715Y-122769286D01*
X158488096Y-122864524D01*
X158392858Y-122959762D01*
X158250000Y-123007381D01*
X158011905Y-123007381D01*
X158916667Y-122007381D02*
X159583334Y-122007381D01*
X159154762Y-123007381D01*
X158011905Y-126182381D02*
X158011905Y-125182381D01*
X158250000Y-125182381D01*
X158392858Y-125230000D01*
X158488096Y-125325238D01*
X158535715Y-125420476D01*
X158583334Y-125610952D01*
X158583334Y-125753810D01*
X158535715Y-125944286D01*
X158488096Y-126039524D01*
X158392858Y-126134762D01*
X158250000Y-126182381D01*
X158011905Y-126182381D01*
X159154762Y-125610952D02*
X159059524Y-125563333D01*
X159011905Y-125515714D01*
X158964286Y-125420476D01*
X158964286Y-125372857D01*
X159011905Y-125277619D01*
X159059524Y-125230000D01*
X159154762Y-125182381D01*
X159345239Y-125182381D01*
X159440477Y-125230000D01*
X159488096Y-125277619D01*
X159535715Y-125372857D01*
X159535715Y-125420476D01*
X159488096Y-125515714D01*
X159440477Y-125563333D01*
X159345239Y-125610952D01*
X159154762Y-125610952D01*
X159059524Y-125658571D01*
X159011905Y-125706190D01*
X158964286Y-125801429D01*
X158964286Y-125991905D01*
X159011905Y-126087143D01*
X159059524Y-126134762D01*
X159154762Y-126182381D01*
X159345239Y-126182381D01*
X159440477Y-126134762D01*
X159488096Y-126087143D01*
X159535715Y-125991905D01*
X159535715Y-125801429D01*
X159488096Y-125706190D01*
X159440477Y-125658571D01*
X159345239Y-125610952D01*
X158011905Y-128722381D02*
X158011905Y-127722381D01*
X158250000Y-127722381D01*
X158392858Y-127770000D01*
X158488096Y-127865238D01*
X158535715Y-127960476D01*
X158583334Y-128150952D01*
X158583334Y-128293810D01*
X158535715Y-128484286D01*
X158488096Y-128579524D01*
X158392858Y-128674762D01*
X158250000Y-128722381D01*
X158011905Y-128722381D01*
X159059524Y-128722381D02*
X159250000Y-128722381D01*
X159345239Y-128674762D01*
X159392858Y-128627143D01*
X159488096Y-128484286D01*
X159535715Y-128293810D01*
X159535715Y-127912857D01*
X159488096Y-127817619D01*
X159440477Y-127770000D01*
X159345239Y-127722381D01*
X159154762Y-127722381D01*
X159059524Y-127770000D01*
X159011905Y-127817619D01*
X158964286Y-127912857D01*
X158964286Y-128150952D01*
X159011905Y-128246190D01*
X159059524Y-128293810D01*
X159154762Y-128341429D01*
X159345239Y-128341429D01*
X159440477Y-128293810D01*
X159488096Y-128246190D01*
X159535715Y-128150952D01*
X147851905Y-133802381D02*
X147851905Y-132802381D01*
X148232858Y-132802381D01*
X148328096Y-132850000D01*
X148375715Y-132897619D01*
X148423334Y-132992857D01*
X148423334Y-133135714D01*
X148375715Y-133230952D01*
X148328096Y-133278571D01*
X148232858Y-133326190D01*
X147851905Y-133326190D01*
X149375715Y-133802381D02*
X148804286Y-133802381D01*
X149090000Y-133802381D02*
X149090000Y-132802381D01*
X148994762Y-132945238D01*
X148899524Y-133040476D01*
X148804286Y-133088095D01*
M02*
